<svg width="111" height="22" viewBox="0 0 111 22" fill="none" xmlns="http://www.w3.org/2000/svg">
<path d="M21.5156 6.125C21.5469 6.25 21.5625 6.45312 21.5625 6.73438C21.5625 8.98438 21.0156 11.1562 19.9219 13.25C18.7969 15.4688 17.2188 17.2344 15.1875 18.5469C12.9688 20.0156 10.4219 20.75 7.54688 20.75C4.79688 20.75 2.28125 20.0156 0 18.5469C0.34375 18.5781 0.734375 18.5938 1.17188 18.5938C3.45312 18.5938 5.5 17.8906 7.3125 16.4844C6.21875 16.4844 5.25 16.1719 4.40625 15.5469C3.59375 14.8906 3.03125 14.0781 2.71875 13.1094C3.03125 13.1406 3.32812 13.1562 3.60938 13.1562C4.04688 13.1562 4.48438 13.1094 4.92188 13.0156C3.79688 12.7656 2.85938 12.1875 2.10938 11.2812C1.35938 10.375 0.984375 9.34375 0.984375 8.1875V8.09375C1.67188 8.5 2.40625 8.71875 3.1875 8.75C2.53125 8.28125 2 7.6875 1.59375 6.96875C1.1875 6.25 0.984375 5.46875 0.984375 4.625C0.984375 3.75 1.21875 2.92188 1.6875 2.14062C2.90625 3.67188 4.39062 4.89063 6.14062 5.79688C7.92188 6.70312 9.8125 7.20312 11.8125 7.29688C11.75 6.92188 11.7188 6.54688 11.7188 6.17188C11.7188 5.29687 11.9375 4.48438 12.375 3.73438C12.8125 2.95312 13.4062 2.34375 14.1562 1.90625C14.9062 1.46875 15.7188 1.25 16.5938 1.25C17.3125 1.25 17.9688 1.39062 18.5625 1.67188C19.1875 1.95312 19.7344 2.32812 20.2031 2.79688C21.3281 2.57812 22.375 2.1875 23.3438 1.625C22.9688 2.78125 22.25 3.6875 21.1875 4.34375C22.125 4.21875 23.0625 3.95313 24 3.54688C23.3125 4.54687 22.4844 5.40625 21.5156 6.125Z" fill="url(#paint0_linear)"/>
<path d="M66.5 2.75V19.25C66.5 19.875 66.2812 20.4062 65.8438 20.8438C65.4062 21.2812 64.875 21.5 64.25 21.5H60.2656V13.2031H63.0781L63.5 10.0156H60.2656V8C60.2656 7.5 60.3594 7.125 60.5469 6.875C60.7969 6.59375 61.2188 6.45312 61.8125 6.45312H63.5V3.64062C62.8438 3.54688 62.0312 3.5 61.0625 3.5C59.8125 3.5 58.8125 3.875 58.0625 4.625C57.3438 5.34375 56.9844 6.35938 56.9844 7.67188V10.0156H54.125V13.2031H56.9844V21.5H47.75C47.125 21.5 46.5938 21.2812 46.1562 20.8438C45.7188 20.4062 45.5 19.875 45.5 19.25V2.75C45.5 2.125 45.7188 1.59375 46.1562 1.15625C46.5938 0.71875 47.125 0.5 47.75 0.5H64.25C64.875 0.5 65.4062 0.71875 65.8438 1.15625C66.2812 1.59375 66.5 2.125 66.5 2.75Z" fill="url(#paint1_linear)"/>
<path d="M100 5.60938C99.0312 5.60938 98.125 5.85937 97.2812 6.35938C96.4688 6.82812 95.8125 7.48438 95.3125 8.32812C94.8438 9.14062 94.6094 10.0312 94.6094 11C94.6094 11.9688 94.8438 12.875 95.3125 13.7188C95.8125 14.5312 96.4688 15.1875 97.2812 15.6875C98.125 16.1562 99.0312 16.3906 100 16.3906C100.969 16.3906 101.859 16.1562 102.672 15.6875C103.516 15.1875 104.172 14.5312 104.641 13.7188C105.141 12.875 105.391 11.9688 105.391 11C105.391 10.0312 105.141 9.14062 104.641 8.32812C104.172 7.48438 103.516 6.82812 102.672 6.35938C101.859 5.85937 100.969 5.60938 100 5.60938ZM100 14.5156C99.0312 14.5156 98.2031 14.1719 97.5156 13.4844C96.8281 12.7969 96.4844 11.9688 96.4844 11C96.4844 10.0312 96.8281 9.20312 97.5156 8.51562C98.2031 7.82812 99.0312 7.48438 100 7.48438C100.969 7.48438 101.797 7.82812 102.484 8.51562C103.172 9.20312 103.516 10.0312 103.516 11C103.516 11.9688 103.172 12.7969 102.484 13.4844C101.797 14.1719 100.969 14.5156 100 14.5156ZM106.891 5.375C106.859 5.71875 106.719 6.01563 106.469 6.26562C106.25 6.51562 105.969 6.64062 105.625 6.64062C105.281 6.64062 104.984 6.51562 104.734 6.26562C104.484 6.01563 104.359 5.71875 104.359 5.375C104.359 5.03125 104.484 4.73437 104.734 4.48438C104.984 4.23438 105.281 4.10938 105.625 4.10938C105.969 4.10938 106.266 4.23438 106.516 4.48438C106.766 4.73437 106.891 5.03125 106.891 5.375ZM110.453 6.64062C110.391 5.73438 110.25 4.95312 110.031 4.29688C109.75 3.51562 109.312 2.84375 108.719 2.28125C108.156 1.6875 107.484 1.25 106.703 0.96875C106.047 0.75 105.266 0.625 104.359 0.59375C103.484 0.53125 102.031 0.5 100 0.5C97.9688 0.5 96.5 0.53125 95.5938 0.59375C94.7188 0.625 93.9531 0.75 93.2969 0.96875C92.5156 1.25 91.8281 1.6875 91.2344 2.28125C90.6719 2.84375 90.25 3.51562 89.9688 4.29688C89.75 4.95312 89.6094 5.73438 89.5469 6.64062C89.5156 7.51562 89.5 8.96875 89.5 11C89.5 13.0312 89.5156 14.5 89.5469 15.4062C89.6094 16.2812 89.75 17.0469 89.9688 17.7031C90.25 18.4844 90.6719 19.1719 91.2344 19.7656C91.8281 20.3281 92.5156 20.7344 93.2969 20.9844C93.9531 21.2344 94.7188 21.375 95.5938 21.4062C96.5 21.4688 97.9688 21.5 100 21.5C102.031 21.5 103.484 21.4688 104.359 21.4062C105.266 21.375 106.047 21.25 106.703 21.0312C107.484 20.75 108.156 20.3281 108.719 19.7656C109.312 19.1719 109.75 18.4844 110.031 17.7031C110.25 17.0469 110.375 16.2812 110.406 15.4062C110.469 14.5 110.5 13.0312 110.5 11C110.5 8.96875 110.484 7.51562 110.453 6.64062ZM108.203 17.1875C107.828 18.125 107.156 18.7969 106.188 19.2031C105.688 19.3906 104.844 19.5156 103.656 19.5781C103 19.6094 102.031 19.625 100.75 19.625H99.25C98 19.625 97.0312 19.6094 96.3438 19.5781C95.1875 19.5156 94.3438 19.3906 93.8125 19.2031C92.875 18.8281 92.2031 18.1562 91.7969 17.1875C91.6094 16.6562 91.4844 15.8125 91.4219 14.6562C91.3906 13.9688 91.375 13 91.375 11.75V10.25C91.375 9 91.3906 8.03125 91.4219 7.34375C91.4844 6.15625 91.6094 5.3125 91.7969 4.8125C92.1719 3.84375 92.8438 3.17188 93.8125 2.79688C94.3438 2.60938 95.1875 2.48437 96.3438 2.42188C97.0312 2.39062 98 2.375 99.25 2.375H100.75C102 2.375 102.969 2.39062 103.656 2.42188C104.844 2.48437 105.688 2.60938 106.188 2.79688C107.156 3.17188 107.828 3.84375 108.203 4.8125C108.391 5.3125 108.516 6.15625 108.578 7.34375C108.609 8 108.625 8.96875 108.625 10.25V11.75C108.625 13 108.609 13.9688 108.578 14.6562C108.516 15.8125 108.391 16.6562 108.203 17.1875Z" fill="url(#paint2_linear)"/>
<defs>
<linearGradient id="paint0_linear" x1="12" y1="-1" x2="12" y2="23" gradientUnits="userSpaceOnUse">
<stop stop-color="#BC9CFF"/>
<stop offset="1" stop-color="#8BA4F9"/>
</linearGradient>
<linearGradient id="paint1_linear" x1="56" y1="-1" x2="56" y2="23" gradientUnits="userSpaceOnUse">
<stop stop-color="#BC9CFF"/>
<stop offset="1" stop-color="#8BA4F9"/>
</linearGradient>
<linearGradient id="paint2_linear" x1="100" y1="-1" x2="100" y2="23" gradientUnits="userSpaceOnUse">
<stop stop-color="#BC9CFF"/>
<stop offset="1" stop-color="#8BA4F9"/>
</linearGradient>
</defs>
</svg>
